<svg width="200" height="80" xmlns="http://www.w3.org/2000/svg">
 <style type="text/css">.st0{fill:#14BF98;}
	.st1{fill:#FFFFFF;}</style>

 <title>logo</title>
 <g stroke="null">
  <title>background</title>
  <rect fill="none" id="canvas_background" height="82" width="202" y="-1" x="-1" stroke="null"/>
 </g>
 <g stroke="null">
  <title>Layer 1</title>
  <polygon id="svg_1" points="19.04951572418213,38.0300989151001 15.249516010284424,38.0300989151001 13.349515914916992,41.33009910583496 15.249516010284424,44.63009834289551 19.04951572418213,44.63009834289551 21.04951572418213,41.33009910583496 " class="st0" stroke="null" stroke-width="99"/>
  <polygon id="svg_2" points="23.649516105651855,30.130099296569824 19.849515914916992,30.130099296569824 17.94951581954956,33.43009948730469 19.849515914916992,36.730098724365234 23.649516105651855,36.730098724365234 25.54951572418213,33.43009948730469 " class="st0" stroke="null" stroke-width="99"/>
  <polygon id="svg_3" points="28.149516105651855,22.33009910583496 24.349515914916992,22.33009910583496 22.44951629638672,25.630099058151245 24.349515914916992,28.93009901046753 28.149516105651855,28.93009901046753 30.049516677856445,25.630099058151245 " class="st0" stroke="null" stroke-width="99"/>
  <polygon id="svg_4" points="37.249515533447266,22.33009910583496 33.34951591491699,22.33009910583496 31.44951629638672,25.630099058151245 33.34951591491699,28.93009901046753 37.249515533447266,28.93009901046753 39.14951515197754,25.630099058151245 " class="st0" stroke="null" stroke-width="99"/>
  <polygon id="svg_5" points="32.44951629638672,30.930099487304688 29.549516677856445,30.930099487304688 28.04951572418213,33.43009948730469 29.549516677856445,35.93009948730469 32.44951629638672,35.93009948730469 33.94951629638672,33.43009948730469 " class="st0" stroke="null" stroke-width="99"/>
  <polygon id="svg_6" points="41.549516677856445,30.930099487304688 38.549516677856445,30.930099487304688 37.14951515197754,33.43009948730469 38.549516677856445,35.93009948730469 41.549516677856445,35.93009948730469 42.94951629638672,33.43009948730469 " class="st0" stroke="null" stroke-width="99"/>
  <polygon id="svg_7" points="32.14951515197754,48.030099868774414 29.849515914916992,48.030099868774414 28.749515533447266,50.030099868774414 29.849515914916992,52.030099868774414 32.14951515197754,52.030099868774414 33.249515533447266,50.030099868774414 " class="st0" stroke="null" stroke-width="99"/>
  <polygon id="svg_8" points="41.249515533447266,48.030099868774414 38.94951629638672,48.030099868774414 37.749515533447266,50.030099868774414 38.94951629638672,52.030099868774414 41.249515533447266,52.030099868774414 42.34951591491699,50.030099868774414 " class="st0" stroke="null" stroke-width="99"/>
  <polygon id="svg_9" points="36.249515533447266,57.030099868774414 34.34951591491699,57.030099868774414 33.34951591491699,58.63009834289551 34.34951591491699,60.33009910583496 36.249515533447266,60.33009910583496 37.249515533447266,58.63009834289551 " class="st0" stroke="null" stroke-width="99"/>
  <polygon id="svg_10" points="46.2495174407959,22.33009910583496 42.44951629638672,22.33009910583496 40.549516677856445,25.630099058151245 42.44951629638672,28.93009901046753 46.2495174407959,28.93009901046753 48.2495174407959,25.630099058151245 " class="st0" stroke-width="99" stroke="null"/>
  <polygon id="svg_11" points="27.849515914916992,38.530099868774414 24.649516105651855,38.530099868774414 23.149516105651855,41.230098724365234 24.649516105651855,43.93009948730469 27.849515914916992,43.93009948730469 29.349515914916992,41.230098724365234 " class="st0" stroke="null" stroke-width="99"/>
  <polygon id="svg_12" points="44.35941123962402,38.530099868774414 41.25941276550293,38.530099868774414 39.6594123840332,41.230098724365234 41.25941276550293,43.93009948730469 44.35941123962402,43.93009948730469 45.95941352844238,41.230098724365234 " class="st0" stroke="null" stroke-width="99"/>
  <polygon id="svg_13" points="36.64951515197754,38.93009948730469 33.94951629638672,38.93009948730469 32.64951515197754,41.230098724365234 33.94951629638672,43.530099868774414 36.64951515197754,43.530099868774414 37.94951629638672,41.230098724365234 " class="st0" stroke="null" stroke-width="99"/>
  <polygon id="svg_14" points="50.7495174407959,30.130099296569824 46.949514389038086,30.130099296569824 45.049516677856445,33.43009948730469 46.949514389038086,36.730098724365234 50.7495174407959,36.730098724365234 52.64951515197754,33.43009948730469 " class="st0" stroke="null" stroke-width="99"/>
  <polygon id="svg_15" points="23.04951572418213,47.33009910583496 19.94951581954956,47.33009910583496 18.349515914916992,50.030099868774414 19.94951581954956,52.730098724365234 23.04951572418213,52.730098724365234 24.649516105651855,50.030099868774414 " class="st0" stroke="null" stroke-width="99"/>
  <polygon id="svg_16" points="25.749515533447266,57.23010063171387 23.94951629638672,57.23010063171387 23.04951572418213,58.83009910583496 23.94951629638672,60.33009910583496 25.749515533447266,60.33009910583496 26.649516105651855,58.83009910583496 " class="st0" stroke="null" stroke-width="99"/>
  <polygon id="svg_17" points="55.34951591491699,38.0300989151001 51.549516677856445,38.0300989151001 49.64951515197754,41.33009910583496 51.549516677856445,44.63009834289551 55.34951591491699,44.63009834289551 57.2495174407959,41.33009910583496 " class="st0" stroke="null" stroke-width="99"/>
  <polygon id="svg_18" points="50.64951515197754,47.33009910583496 47.549516677856445,47.33009910583496 45.949514389038086,50.030099868774414 47.549516677856445,52.730098724365234 50.64951515197754,52.730098724365234 52.2495174407959,50.030099868774414 " class="st0" stroke="null" stroke-width="99"/>
  <polygon id="svg_19" points="46.261919021606445,55.44870567321777 43.761919021606445,55.44870567321777 42.4619197845459,57.54870414733887 43.761919021606445,59.74870491027832 46.261919021606445,59.74870491027832 47.4619197845459,57.54870414733887 " class="st0" stroke="null" stroke-width="99"/>
  <text style="cursor: move;" font-weight="bold" transform="matrix(1.0965539760115512,0,0,1.0882143118913494,-21.28878049753959,-7.137852502160327) " xml:space="preserve" text-anchor="start" font-family="Oswald, sans-serif" font-size="24" id="svg_25" y="46.93003" x="79" stroke-opacity="null" stroke-width="0" fill="#ffffff" stroke="null">VAISHNO</text>
  <text font-style="normal" font-weight="normal" transform="matrix(0.4656030615466326,0,0,0.3445018815438935,28.593867704586607,19.540006672861974) " xml:space="preserve" text-anchor="start" font-family="'Trebuchet MS', Gadget, sans-serif" font-size="24" id="svg_26" y="108.49443" x="91.76025" stroke-opacity="null" stroke-width="0" fill="#fffcfc" stroke="null">BRICKS  INDUSTRY</text>
 </g>
</svg>